<svg width="487" height="709" viewBox="0 0 487 709" fill="none" xmlns="http://www.w3.org/2000/svg">
<path d="M53.2588 0.155273C53.2606 1.65527 53.2617 1.65527 53.2627 1.65527H53.6221C53.8603 1.65498 54.214 1.65389 54.6758 1.65332C55.5999 1.65219 56.9578 1.65055 58.6904 1.64844C62.1556 1.64421 67.122 1.63908 73.127 1.63184C85.1377 1.61734 101.304 1.5975 117.924 1.57812C151.165 1.53937 186.222 1.50051 193.49 1.5C196.585 1.49992 199.071 2.92058 201.482 5.30957C203.949 7.75312 206.138 10.9936 208.753 14.4805C213.885 21.3247 220.36 28.6621 232.354 28.6621C244.327 28.6621 251.054 21.3886 256.534 14.6016C259.323 11.148 261.72 7.91523 264.395 5.48535C267.016 3.10379 269.74 1.65527 273.091 1.65527H439.621C441.972 1.65527 444.276 2.4551 446.204 3.95996L454.359 10.3271L454.766 10.6445H455.281L466.399 10.6553C476.678 10.665 485.195 19.688 485.195 31.0566V707.5H1.5V31.0566L1.50586 30.5254C1.76618 19.4082 10.1769 10.665 20.2949 10.6553L31.4141 10.6445H31.9287L32.335 10.3271L40.4902 3.95996C42.4178 2.45511 44.722 1.65534 47.0732 1.65527H53.2607L53.2588 0.155273Z" fill="#F5F5F5" stroke="#FF0000" style="fill:#F5F5F5;fill:color(display-p3 0.9592 0.9592 0.9592);fill-opacity:1;stroke:#FF0000;stroke:color(display-p3 1.0000 0.0000 0.0000);stroke-opacity:1;" stroke-width="3"/>
</svg>
